<?xml version="1.0" encoding="UTF-8" standalone="no"?>
<!DOCTYPE svg PUBLIC "-//W3C//DTD SVG 1.1//EN"
 "http://www.w3.org/Graphics/SVG/1.1/DTD/svg11.dtd">
<!-- Generated by graphviz version 2.40.1 (20161225.0304)
 -->
<!-- Title: workflow Pages: 1 -->
<svg width="491pt" height="433pt"
 viewBox="0.00 0.00 490.60 432.80" xmlns="http://www.w3.org/2000/svg" xmlns:xlink="http://www.w3.org/1999/xlink">
<g id="graph0" class="graph" transform="scale(1 1) rotate(0) translate(4 428.8)">
<title>workflow</title>
<polygon fill="#ffffff" stroke="transparent" points="-4,4 -4,-428.8 486.6,-428.8 486.6,4 -4,4"/>
<!-- p0 -->
<g id="node1" class="node">
<title>p0</title>
<ellipse fill="#000000" stroke="#000000" cx="103.6" cy="-406.2" rx="3.6" ry="3.6"/>
<text text-anchor="middle" x="50" y="-413.6" font-family="Times,serif" font-size="14.00" fill="#000000">Channel.fromPath</text>
</g>
<!-- p1 -->
<g id="node2" class="node">
<title>p1</title>
<ellipse fill="none" stroke="#000000" cx="103.6" cy="-333.6" rx="75.2868" ry="18"/>
<text text-anchor="middle" x="103.6" y="-329.9" font-family="Times,serif" font-size="14.00" fill="#000000">buildIndicesrRNA</text>
</g>
<!-- p0&#45;&gt;p1 -->
<g id="edge1" class="edge">
<title>p0&#45;&gt;p1</title>
<path fill="none" stroke="#000000" d="M103.6,-402.2967C103.6,-394.6869 103.6,-377.2632 103.6,-361.8684"/>
<polygon fill="#000000" stroke="#000000" points="107.1001,-361.6802 103.6,-351.6802 100.1001,-361.6802 107.1001,-361.6802"/>
<text text-anchor="middle" x="131.1" y="-373.4" font-family="Times,serif" font-size="14.00" fill="#000000">rrna_fasta</text>
</g>
<!-- p7 -->
<g id="node3" class="node">
<title>p7</title>
<ellipse fill="none" stroke="#000000" cx="182.6" cy="-246.6" rx="53.0913" ry="18"/>
<text text-anchor="middle" x="182.6" y="-242.9" font-family="Times,serif" font-size="14.00" fill="#000000">hisat2rRNA</text>
</g>
<!-- p1&#45;&gt;p7 -->
<g id="edge2" class="edge">
<title>p1&#45;&gt;p7</title>
<path fill="none" stroke="#000000" d="M115.7459,-315.412C122.8117,-305.3386 132.1646,-292.8241 141.6,-282.6 145.4545,-278.4233 149.7544,-274.2268 154.0792,-270.2494"/>
<polygon fill="#000000" stroke="#000000" points="156.6568,-272.6408 161.7999,-263.378 152.003,-267.4118 156.6568,-272.6408"/>
<text text-anchor="middle" x="175.1" y="-286.4" font-family="Times,serif" font-size="14.00" fill="#000000">rrna_indices</text>
</g>
<!-- p9 -->
<g id="node6" class="node">
<title>p9</title>
<ellipse fill="none" stroke="#000000" cx="294.6" cy="-159.6" rx="48.9926" ry="18"/>
<text text-anchor="middle" x="294.6" y="-155.9" font-family="Times,serif" font-size="14.00" fill="#000000">hisat2ORF</text>
</g>
<!-- p7&#45;&gt;p9 -->
<g id="edge8" class="edge">
<title>p7&#45;&gt;p9</title>
<path fill="none" stroke="#000000" d="M206.5054,-230.3273C215.1537,-224.2834 224.9225,-217.2724 233.6,-210.6 245.0234,-201.8162 257.2736,-191.7157 267.7768,-182.8329"/>
<polygon fill="#000000" stroke="#000000" points="270.0812,-185.4677 275.4255,-176.3195 265.5427,-180.1383 270.0812,-185.4677"/>
<text text-anchor="middle" x="280.1" y="-199.4" font-family="Times,serif" font-size="14.00" fill="#000000">non_rrnas</text>
</g>
<!-- p8 -->
<g id="node10" class="node">
<title>p8</title>
<ellipse fill="#000000" stroke="#000000" cx="174.6" cy="-159.6" rx="1.8" ry="1.8"/>
</g>
<!-- p7&#45;&gt;p8 -->
<g id="edge9" class="edge">
<title>p7&#45;&gt;p8</title>
<path fill="none" stroke="#000000" d="M178.4242,-228.3781C177.2968,-222.7126 176.2187,-216.4249 175.6,-210.6 174.1951,-197.374 174.0944,-182.1133 174.2512,-171.7575"/>
<polygon fill="#000000" stroke="#000000" points="177.7554,-171.641 174.5176,-161.5531 170.7578,-171.4583 177.7554,-171.641"/>
<text text-anchor="middle" x="204.6" y="-199.4" font-family="Times,serif" font-size="14.00" fill="#000000">rrna_maps</text>
</g>
<!-- p2 -->
<g id="node4" class="node">
<title>p2</title>
<ellipse fill="#000000" stroke="#000000" cx="333.6" cy="-333.6" rx="3.6" ry="3.6"/>
<text text-anchor="middle" x="380" y="-341" font-family="Times,serif" font-size="14.00" fill="#000000">Channel.fromPath</text>
</g>
<!-- p3 -->
<g id="node5" class="node">
<title>p3</title>
<ellipse fill="none" stroke="#000000" cx="333.6" cy="-246.6" rx="71.4873" ry="18"/>
<text text-anchor="middle" x="333.6" y="-242.9" font-family="Times,serif" font-size="14.00" fill="#000000">buildIndicesORF</text>
</g>
<!-- p2&#45;&gt;p3 -->
<g id="edge3" class="edge">
<title>p2&#45;&gt;p3</title>
<path fill="none" stroke="#000000" d="M333.6,-329.8617C333.6,-320.445 333.6,-295.053 333.6,-274.7647"/>
<polygon fill="#000000" stroke="#000000" points="337.1001,-274.7321 333.6,-264.7322 330.1001,-274.7322 337.1001,-274.7321"/>
<text text-anchor="middle" x="358.1" y="-286.4" font-family="Times,serif" font-size="14.00" fill="#000000">orf_fasta</text>
</g>
<!-- p3&#45;&gt;p9 -->
<g id="edge4" class="edge">
<title>p3&#45;&gt;p9</title>
<path fill="none" stroke="#000000" d="M326.0101,-228.5968C321.8371,-218.8034 316.5216,-206.4973 311.6,-195.6 310.3047,-192.7319 308.9323,-189.7453 307.5514,-186.7729"/>
<polygon fill="#000000" stroke="#000000" points="310.6115,-185.0552 303.1943,-177.4897 304.2748,-188.0293 310.6115,-185.0552"/>
<text text-anchor="middle" x="348.1" y="-199.4" font-family="Times,serif" font-size="14.00" fill="#000000">orf_indices</text>
</g>
<!-- p10 -->
<g id="node11" class="node">
<title>p10</title>
<ellipse fill="#000000" stroke="#000000" cx="249.6" cy="-72.6" rx="1.8" ry="1.8"/>
</g>
<!-- p9&#45;&gt;p10 -->
<g id="edge10" class="edge">
<title>p9&#45;&gt;p10</title>
<path fill="none" stroke="#000000" d="M273.83,-143.0867C268.0609,-137.4906 262.3553,-130.8127 258.6,-123.6 252.294,-111.4883 250.3025,-95.7975 249.7258,-85.0371"/>
<polygon fill="#000000" stroke="#000000" points="253.2187,-84.6179 249.5336,-74.6846 246.22,-84.7479 253.2187,-84.6179"/>
<text text-anchor="middle" x="288.1" y="-112.4" font-family="Times,serif" font-size="14.00" fill="#000000">unaligneds</text>
</g>
<!-- p11 -->
<g id="node12" class="node">
<title>p11</title>
<ellipse fill="none" stroke="#000000" cx="347.6" cy="-72.6" rx="77.9862" ry="18"/>
<text text-anchor="middle" x="347.6" y="-68.9" font-family="Times,serif" font-size="14.00" fill="#000000">trim5pMismatches</text>
</g>
<!-- p9&#45;&gt;p11 -->
<g id="edge11" class="edge">
<title>p9&#45;&gt;p11</title>
<path fill="none" stroke="#000000" d="M306.1956,-141.7365C309.8861,-135.9755 313.9553,-129.5431 317.6,-123.6 322.3863,-115.7955 327.4761,-107.2437 332.078,-99.411"/>
<polygon fill="#000000" stroke="#000000" points="335.1835,-101.0336 337.2086,-90.6341 329.1403,-97.501 335.1835,-101.0336"/>
<text text-anchor="middle" x="351.6" y="-112.4" font-family="Times,serif" font-size="14.00" fill="#000000">orf_maps</text>
</g>
<!-- p4 -->
<g id="node7" class="node">
<title>p4</title>
<ellipse fill="#000000" stroke="#000000" cx="280.6" cy="-406.2" rx="3.6" ry="3.6"/>
</g>
<!-- p6 -->
<g id="node8" class="node">
<title>p6</title>
<ellipse fill="none" stroke="#000000" cx="250.6" cy="-333.6" rx="53.0913" ry="18"/>
<text text-anchor="middle" x="250.6" y="-329.9" font-family="Times,serif" font-size="14.00" fill="#000000">cutAdapters</text>
</g>
<!-- p4&#45;&gt;p6 -->
<g id="edge5" class="edge">
<title>p4&#45;&gt;p6</title>
<path fill="none" stroke="#000000" d="M279.3477,-402.7448C276.9688,-396.2237 271.5876,-381.6724 266.6,-369.6 265.4109,-366.7219 264.1387,-363.7287 262.8505,-360.7525"/>
<polygon fill="#000000" stroke="#000000" points="265.9948,-359.208 258.7634,-351.4648 259.5877,-362.0275 265.9948,-359.208"/>
</g>
<!-- p6&#45;&gt;p7 -->
<g id="edge7" class="edge">
<title>p6&#45;&gt;p7</title>
<path fill="none" stroke="#000000" d="M236.8392,-315.9943C226.9771,-303.3765 213.5429,-286.1887 202.5122,-272.0759"/>
<polygon fill="#000000" stroke="#000000" points="205.2562,-269.9031 196.3403,-264.1796 199.741,-274.2138 205.2562,-269.9031"/>
<text text-anchor="middle" x="256.1" y="-286.4" font-family="Times,serif" font-size="14.00" fill="#000000">cut_adapters</text>
</g>
<!-- p5 -->
<g id="node9" class="node">
<title>p5</title>
<ellipse fill="#000000" stroke="#000000" cx="219.6" cy="-406.2" rx="3.6" ry="3.6"/>
</g>
<!-- p5&#45;&gt;p6 -->
<g id="edge6" class="edge">
<title>p5&#45;&gt;p6</title>
<path fill="none" stroke="#000000" d="M218.2833,-402.614C216.0263,-395.8749 212.0776,-380.9749 216.6,-369.6 218.2079,-365.5558 220.5095,-361.7032 223.1675,-358.1247"/>
<polygon fill="#000000" stroke="#000000" points="226.0126,-360.1833 229.8578,-350.3109 220.6953,-355.6306 226.0126,-360.1833"/>
<text text-anchor="middle" x="239.6" y="-373.4" font-family="Times,serif" font-size="14.00" fill="#000000">adapters</text>
</g>
<!-- p13 -->
<g id="node13" class="node">
<title>p13</title>
<ellipse fill="#000000" stroke="#000000" cx="292.6" cy="-1.8" rx="1.8" ry="1.8"/>
</g>
<!-- p11&#45;&gt;p13 -->
<g id="edge12" class="edge">
<title>p11&#45;&gt;p13</title>
<path fill="none" stroke="#000000" d="M312.5958,-56.3242C305.0512,-51.1196 298.0216,-44.584 293.6,-36.6 289.7201,-29.5941 289.5886,-20.5179 290.3647,-13.3913"/>
<polygon fill="#000000" stroke="#000000" points="293.8118,-13.9975 292.1283,-3.5373 286.9213,-12.7642 293.8118,-13.9975"/>
<text text-anchor="middle" x="337.6" y="-25.4" font-family="Times,serif" font-size="14.00" fill="#000000">clean_orf_maps</text>
</g>
<!-- p12 -->
<g id="node14" class="node">
<title>p12</title>
<ellipse fill="#000000" stroke="#000000" cx="403.6" cy="-1.8" rx="1.8" ry="1.8"/>
</g>
<!-- p11&#45;&gt;p12 -->
<g id="edge13" class="edge">
<title>p11&#45;&gt;p12</title>
<path fill="none" stroke="#000000" d="M365.6102,-54.8974C370.9935,-49.253 376.749,-42.8467 381.6,-36.6 387.6267,-28.8394 393.5247,-19.3787 397.6944,-12.2816"/>
<polygon fill="#000000" stroke="#000000" points="400.8035,-13.8942 402.6974,-3.47 394.7163,-10.438 400.8035,-13.8942"/>
<text text-anchor="middle" x="437.1" y="-25.4" font-family="Times,serif" font-size="14.00" fill="#000000">trim_summaries</text>
</g>
</g>
</svg>
