<?xml version="1.0" encoding="UTF-8" standalone="no"?>
<!DOCTYPE svg PUBLIC "-//W3C//DTD SVG 1.1//EN"
 "http://www.w3.org/Graphics/SVG/1.1/DTD/svg11.dtd">
<!-- Generated by graphviz version 2.40.1 (20161225.0304)
 -->
<!-- Title: workflow Pages: 1 -->
<svg width="490pt" height="611pt"
 viewBox="0.00 0.00 489.60 611.20" xmlns="http://www.w3.org/2000/svg" xmlns:xlink="http://www.w3.org/1999/xlink">
<g id="graph0" class="graph" transform="scale(1 1) rotate(0) translate(4 607.2)">
<title>workflow</title>
<polygon fill="#ffffff" stroke="transparent" points="-4,4 -4,-607.2 485.6,-607.2 485.6,4 -4,4"/>
<!-- p0 -->
<g id="node1" class="node">
<title>p0</title>
<ellipse fill="#000000" stroke="#000000" cx="103.6" cy="-584.6" rx="3.6" ry="3.6"/>
<text text-anchor="middle" x="50" y="-592" font-family="Times,serif" font-size="14.00" fill="#000000">Channel.fromPath</text>
</g>
<!-- p1 -->
<g id="node2" class="node">
<title>p1</title>
<ellipse fill="none" stroke="#000000" cx="103.6" cy="-512" rx="75.2868" ry="18"/>
<text text-anchor="middle" x="103.6" y="-508.3" font-family="Times,serif" font-size="14.00" fill="#000000">buildIndicesrRNA</text>
</g>
<!-- p0&#45;&gt;p1 -->
<g id="edge1" class="edge">
<title>p0&#45;&gt;p1</title>
<path fill="none" stroke="#000000" d="M103.6,-580.6967C103.6,-573.0869 103.6,-555.6632 103.6,-540.2684"/>
<polygon fill="#000000" stroke="#000000" points="107.1001,-540.0802 103.6,-530.0802 100.1001,-540.0802 107.1001,-540.0802"/>
<text text-anchor="middle" x="131.1" y="-551.8" font-family="Times,serif" font-size="14.00" fill="#000000">rrna_fasta</text>
</g>
<!-- p7 -->
<g id="node3" class="node">
<title>p7</title>
<ellipse fill="none" stroke="#000000" cx="182.6" cy="-425" rx="53.0913" ry="18"/>
<text text-anchor="middle" x="182.6" y="-421.3" font-family="Times,serif" font-size="14.00" fill="#000000">hisat2rRNA</text>
</g>
<!-- p1&#45;&gt;p7 -->
<g id="edge2" class="edge">
<title>p1&#45;&gt;p7</title>
<path fill="none" stroke="#000000" d="M115.7459,-493.812C122.8117,-483.7386 132.1646,-471.2241 141.6,-461 145.4545,-456.8233 149.7544,-452.6268 154.0792,-448.6494"/>
<polygon fill="#000000" stroke="#000000" points="156.6568,-451.0408 161.7999,-441.778 152.003,-445.8118 156.6568,-451.0408"/>
<text text-anchor="middle" x="175.1" y="-464.8" font-family="Times,serif" font-size="14.00" fill="#000000">rrna_indices</text>
</g>
<!-- p9 -->
<g id="node6" class="node">
<title>p9</title>
<ellipse fill="none" stroke="#000000" cx="294.6" cy="-338" rx="48.9926" ry="18"/>
<text text-anchor="middle" x="294.6" y="-334.3" font-family="Times,serif" font-size="14.00" fill="#000000">hisat2ORF</text>
</g>
<!-- p7&#45;&gt;p9 -->
<g id="edge8" class="edge">
<title>p7&#45;&gt;p9</title>
<path fill="none" stroke="#000000" d="M206.5054,-408.7273C215.1537,-402.6834 224.9225,-395.6724 233.6,-389 245.0234,-380.2162 257.2736,-370.1157 267.7768,-361.2329"/>
<polygon fill="#000000" stroke="#000000" points="270.0812,-363.8677 275.4255,-354.7195 265.5427,-358.5383 270.0812,-363.8677"/>
<text text-anchor="middle" x="280.1" y="-377.8" font-family="Times,serif" font-size="14.00" fill="#000000">non_rrnas</text>
</g>
<!-- p8 -->
<g id="node10" class="node">
<title>p8</title>
<ellipse fill="#000000" stroke="#000000" cx="174.6" cy="-338" rx="1.8" ry="1.8"/>
</g>
<!-- p7&#45;&gt;p8 -->
<g id="edge9" class="edge">
<title>p7&#45;&gt;p8</title>
<path fill="none" stroke="#000000" d="M178.4242,-406.7781C177.2968,-401.1126 176.2187,-394.8249 175.6,-389 174.1951,-375.774 174.0944,-360.5133 174.2512,-350.1575"/>
<polygon fill="#000000" stroke="#000000" points="177.7554,-350.041 174.5176,-339.9531 170.7578,-349.8583 177.7554,-350.041"/>
<text text-anchor="middle" x="204.6" y="-377.8" font-family="Times,serif" font-size="14.00" fill="#000000">rrna_maps</text>
</g>
<!-- p2 -->
<g id="node4" class="node">
<title>p2</title>
<ellipse fill="#000000" stroke="#000000" cx="333.6" cy="-512" rx="3.6" ry="3.6"/>
<text text-anchor="middle" x="380" y="-519.4" font-family="Times,serif" font-size="14.00" fill="#000000">Channel.fromPath</text>
</g>
<!-- p3 -->
<g id="node5" class="node">
<title>p3</title>
<ellipse fill="none" stroke="#000000" cx="333.6" cy="-425" rx="71.4873" ry="18"/>
<text text-anchor="middle" x="333.6" y="-421.3" font-family="Times,serif" font-size="14.00" fill="#000000">buildIndicesORF</text>
</g>
<!-- p2&#45;&gt;p3 -->
<g id="edge3" class="edge">
<title>p2&#45;&gt;p3</title>
<path fill="none" stroke="#000000" d="M333.6,-508.2617C333.6,-498.845 333.6,-473.453 333.6,-453.1647"/>
<polygon fill="#000000" stroke="#000000" points="337.1001,-453.1321 333.6,-443.1322 330.1001,-453.1322 337.1001,-453.1321"/>
<text text-anchor="middle" x="358.1" y="-464.8" font-family="Times,serif" font-size="14.00" fill="#000000">orf_fasta</text>
</g>
<!-- p3&#45;&gt;p9 -->
<g id="edge4" class="edge">
<title>p3&#45;&gt;p9</title>
<path fill="none" stroke="#000000" d="M326.0101,-406.9968C321.8371,-397.2034 316.5216,-384.8973 311.6,-374 310.3047,-371.1319 308.9323,-368.1453 307.5514,-365.1729"/>
<polygon fill="#000000" stroke="#000000" points="310.6115,-363.4552 303.1943,-355.8897 304.2748,-366.4293 310.6115,-363.4552"/>
<text text-anchor="middle" x="348.1" y="-377.8" font-family="Times,serif" font-size="14.00" fill="#000000">orf_indices</text>
</g>
<!-- p10 -->
<g id="node11" class="node">
<title>p10</title>
<ellipse fill="#000000" stroke="#000000" cx="249.6" cy="-251" rx="1.8" ry="1.8"/>
</g>
<!-- p9&#45;&gt;p10 -->
<g id="edge10" class="edge">
<title>p9&#45;&gt;p10</title>
<path fill="none" stroke="#000000" d="M273.83,-321.4867C268.0609,-315.8906 262.3553,-309.2127 258.6,-302 252.294,-289.8883 250.3025,-274.1975 249.7258,-263.4371"/>
<polygon fill="#000000" stroke="#000000" points="253.2187,-263.0179 249.5336,-253.0846 246.22,-263.1479 253.2187,-263.0179"/>
<text text-anchor="middle" x="288.1" y="-290.8" font-family="Times,serif" font-size="14.00" fill="#000000">unaligneds</text>
</g>
<!-- p11 -->
<g id="node12" class="node">
<title>p11</title>
<ellipse fill="none" stroke="#000000" cx="347.6" cy="-251" rx="77.9862" ry="18"/>
<text text-anchor="middle" x="347.6" y="-247.3" font-family="Times,serif" font-size="14.00" fill="#000000">trim5pMismatches</text>
</g>
<!-- p9&#45;&gt;p11 -->
<g id="edge11" class="edge">
<title>p9&#45;&gt;p11</title>
<path fill="none" stroke="#000000" d="M306.1956,-320.1365C309.8861,-314.3755 313.9553,-307.9431 317.6,-302 322.3863,-294.1955 327.4761,-285.6437 332.078,-277.811"/>
<polygon fill="#000000" stroke="#000000" points="335.1835,-279.4336 337.2086,-269.0341 329.1403,-275.901 335.1835,-279.4336"/>
<text text-anchor="middle" x="351.6" y="-290.8" font-family="Times,serif" font-size="14.00" fill="#000000">orf_maps</text>
</g>
<!-- p4 -->
<g id="node7" class="node">
<title>p4</title>
<ellipse fill="#000000" stroke="#000000" cx="280.6" cy="-584.6" rx="3.6" ry="3.6"/>
</g>
<!-- p6 -->
<g id="node8" class="node">
<title>p6</title>
<ellipse fill="none" stroke="#000000" cx="250.6" cy="-512" rx="53.0913" ry="18"/>
<text text-anchor="middle" x="250.6" y="-508.3" font-family="Times,serif" font-size="14.00" fill="#000000">cutAdapters</text>
</g>
<!-- p4&#45;&gt;p6 -->
<g id="edge5" class="edge">
<title>p4&#45;&gt;p6</title>
<path fill="none" stroke="#000000" d="M279.3477,-581.1448C276.9688,-574.6237 271.5876,-560.0724 266.6,-548 265.4109,-545.1219 264.1387,-542.1287 262.8505,-539.1525"/>
<polygon fill="#000000" stroke="#000000" points="265.9948,-537.608 258.7634,-529.8648 259.5877,-540.4275 265.9948,-537.608"/>
</g>
<!-- p6&#45;&gt;p7 -->
<g id="edge7" class="edge">
<title>p6&#45;&gt;p7</title>
<path fill="none" stroke="#000000" d="M236.8392,-494.3943C226.9771,-481.7765 213.5429,-464.5887 202.5122,-450.4759"/>
<polygon fill="#000000" stroke="#000000" points="205.2562,-448.3031 196.3403,-442.5796 199.741,-452.6138 205.2562,-448.3031"/>
<text text-anchor="middle" x="256.1" y="-464.8" font-family="Times,serif" font-size="14.00" fill="#000000">cut_adapters</text>
</g>
<!-- p5 -->
<g id="node9" class="node">
<title>p5</title>
<ellipse fill="#000000" stroke="#000000" cx="219.6" cy="-584.6" rx="3.6" ry="3.6"/>
</g>
<!-- p5&#45;&gt;p6 -->
<g id="edge6" class="edge">
<title>p5&#45;&gt;p6</title>
<path fill="none" stroke="#000000" d="M218.2833,-581.014C216.0263,-574.2749 212.0776,-559.3749 216.6,-548 218.2079,-543.9558 220.5095,-540.1032 223.1675,-536.5247"/>
<polygon fill="#000000" stroke="#000000" points="226.0126,-538.5833 229.8578,-528.7109 220.6953,-534.0306 226.0126,-538.5833"/>
<text text-anchor="middle" x="239.6" y="-551.8" font-family="Times,serif" font-size="14.00" fill="#000000">adapters</text>
</g>
<!-- p13 -->
<g id="node13" class="node">
<title>p13</title>
<ellipse fill="none" stroke="#000000" cx="292.6" cy="-178.5" rx="3.5" ry="3.5"/>
<text text-anchor="middle" x="276.6" y="-185.8" font-family="Times,serif" font-size="14.00" fill="#000000">map</text>
</g>
<!-- p11&#45;&gt;p13 -->
<g id="edge12" class="edge">
<title>p11&#45;&gt;p13</title>
<path fill="none" stroke="#000000" d="M312.5884,-234.7284C305.0439,-229.5237 298.0162,-222.9869 293.6,-215 289.827,-208.1764 289.4488,-199.4839 290.0742,-192.2935"/>
<polygon fill="#000000" stroke="#000000" points="293.5645,-192.6268 291.652,-182.206 286.6486,-191.545 293.5645,-192.6268"/>
<text text-anchor="middle" x="337.6" y="-203.8" font-family="Times,serif" font-size="14.00" fill="#000000">clean_orf_maps</text>
</g>
<!-- p12 -->
<g id="node14" class="node">
<title>p12</title>
<ellipse fill="#000000" stroke="#000000" cx="403.6" cy="-178.5" rx="1.8" ry="1.8"/>
</g>
<!-- p11&#45;&gt;p12 -->
<g id="edge13" class="edge">
<title>p11&#45;&gt;p12</title>
<path fill="none" stroke="#000000" d="M365.6925,-233.3606C371.0792,-227.7188 376.8158,-221.298 381.6,-215 387.8266,-206.8031 393.783,-196.7354 397.9239,-189.2512"/>
<polygon fill="#000000" stroke="#000000" points="401.1025,-190.7286 402.7146,-180.2571 394.9242,-187.4378 401.1025,-190.7286"/>
<text text-anchor="middle" x="436.1" y="-203.8" font-family="Times,serif" font-size="14.00" fill="#000000">trim_summaries</text>
</g>
<!-- p14 -->
<g id="node15" class="node">
<title>p14</title>
<ellipse fill="none" stroke="#000000" cx="292.6" cy="-134.5" rx="3.5" ry="3.5"/>
<text text-anchor="middle" x="270.6" y="-141.8" font-family="Times,serif" font-size="14.00" fill="#000000">collect</text>
</g>
<!-- p13&#45;&gt;p14 -->
<g id="edge14" class="edge">
<title>p13&#45;&gt;p14</title>
<path fill="none" stroke="#000000" d="M292.6,-174.7486C292.6,-168.9686 292.6,-157.5915 292.6,-148.4038"/>
<polygon fill="#000000" stroke="#000000" points="296.1001,-148.2419 292.6,-138.2419 289.1001,-148.242 296.1001,-148.2419"/>
</g>
<!-- p15 -->
<g id="node16" class="node">
<title>p15</title>
<ellipse fill="none" stroke="#000000" cx="292.6" cy="-76" rx="50.0912" ry="18"/>
<text text-anchor="middle" x="292.6" y="-72.3" font-family="Times,serif" font-size="14.00" fill="#000000">summarise</text>
</g>
<!-- p14&#45;&gt;p15 -->
<g id="edge15" class="edge">
<title>p14&#45;&gt;p15</title>
<path fill="none" stroke="#000000" d="M292.6,-130.6617C292.6,-125.1711 292.6,-114.5846 292.6,-104.179"/>
<polygon fill="#000000" stroke="#000000" points="296.1001,-104.0292 292.6,-94.0293 289.1001,-104.0293 296.1001,-104.0292"/>
</g>
<!-- p16 -->
<g id="node17" class="node">
<title>p16</title>
<ellipse fill="none" stroke="#000000" cx="292.6" cy="-3.5" rx="3.5" ry="3.5"/>
<text text-anchor="middle" x="263.1" y="-10.8" font-family="Times,serif" font-size="14.00" fill="#000000">subscribe</text>
</g>
<!-- p15&#45;&gt;p16 -->
<g id="edge16" class="edge">
<title>p15&#45;&gt;p16</title>
<path fill="none" stroke="#000000" d="M292.6,-57.7052C292.6,-45.1364 292.6,-28.7149 292.6,-17.2543"/>
<polygon fill="#000000" stroke="#000000" points="296.1001,-17.1824 292.6,-7.1824 289.1001,-17.1825 296.1001,-17.1824"/>
<text text-anchor="middle" x="318.6" y="-28.8" font-family="Times,serif" font-size="14.00" fill="#000000">summary</text>
</g>
</g>
</svg>
